<?xml version="1.0" encoding="utf-8"?>
<!-- Generator: Adobe Illustrator 19.0.0, SVG Export Plug-In . SVG Version: 6.00 Build 0)  -->
<svg version="1.1" id="Layer_1" xmlns="http://www.w3.org/2000/svg" xmlns:xlink="http://www.w3.org/1999/xlink" x="0px" y="0px"
	 viewBox="0 0 32 32" style="enable-background:new 0 0 32 32;" xml:space="preserve">
<style type="text/css">
	.st0{fill:#010101;}
</style>
<g>
	<path id="XMLID_5_" class="st0" d="M15.8,13.9c-1,0-1.7,0.8-1.7,1.7c0,1,0.8,1.7,1.7,1.7c1,0,1.7-0.8,1.7-1.7
		C17.6,14.6,16.8,13.9,15.8,13.9z"/>
	<path class="st0" d="M30.4,2c-2.2-2.5-4.9-1.6-4.9-1.6L8.2,17.3C7,24.9,0,31.1,0,31.1l0.7,0.6c8.9-8.2,13.4-8,13.4-8L31.2,7.1
		C33.4,4.9,30.4,2,30.4,2z M15.8,18.3c-1.5,0-2.7-1.2-2.7-2.7s1.2-2.7,2.7-2.7s2.7,1.2,2.7,2.7C18.6,17.1,17.3,18.3,15.8,18.3z
		 M23.2,12.6l-3.5-3.9l5.3-4.9l3.8,3.6L23.2,12.6z"/>
	<polygon id="XMLID_1_" class="st0" points="21,8.8 23.2,11.2 27.2,7.5 24.9,5.2 	"/>
</g>
</svg>
