<?xml version="1.0" encoding="utf-8"?>
<!-- Generator: Adobe Illustrator 19.0.0, SVG Export Plug-In . SVG Version: 6.00 Build 0)  -->
<svg version="1.1" id="Layer_1" xmlns="http://www.w3.org/2000/svg" xmlns:xlink="http://www.w3.org/1999/xlink" x="0px" y="0px"
	 viewBox="0 0 32 32" style="enable-background:new 0 0 32 32;" xml:space="preserve">
<style type="text/css">
	.st0{fill:#666766;}
</style>
<g>
	<path class="st0" d="M31.9,19.4c0-2.7-2.2-4.8-4.8-4.8s-4.8,2.2-4.8,4.8c0,2.2,1.5,4.1,3.6,4.7c-0.5,2.7-2.2,5.5-7.1,5.5
		c-2.2,0-4-0.7-5.3-2c-1.4-1.5-2-3.6-2.2-5.2c0.4-0.7,0.8-1.7,0.9-2.5C18,17,19.7,4.4,19.7,4.3c0-0.4,0.1-1.3-2.6-2.8
		C16.8,0.6,15.9,0,15,0c-1.3,0-2.3,1-2.3,2.3s1,2.3,2.3,2.3c0.6,0,1.2-0.2,1.6-0.7c0.3,0.2,0.6,0.4,0.7,0.5
		c-0.4,2.9-2.9,13.4-7.4,13.8C5.4,17.9,3,7.4,2.5,4.4c0.2-0.1,0.4-0.3,0.7-0.5c0.4,0.4,1,0.7,1.6,0.7c1.3,0,2.3-1,2.3-2.3
		S6.1,0,4.8,0C3.9,0,3,0.6,2.7,1.5C0,2.9,0,3.9,0.1,4.3C0.1,4.4,1.8,17,7.6,20c0.1,0.9,0.6,2.2,1.3,2.9c0.3,1.8,1,4.4,2.8,6.3
		c1.7,1.9,4.1,2.8,7,2.8c7.3,0,9.1-5,9.5-7.9C30.4,23.6,31.9,21.7,31.9,19.4z M27.1,21.9c-1.4,0-2.5-1.1-2.5-2.5
		c0-1.4,1.1-2.5,2.5-2.5c1.4,0,2.5,1.1,2.5,2.5C29.6,20.8,28.5,21.9,27.1,21.9z"/>
	<circle id="XMLID_9_" class="st0" cx="27.1" cy="19.4" r="1.2"/>
</g>
</svg>
