<?xml version="1.0" encoding="utf-8"?>
<!-- Generator: Adobe Illustrator 19.0.0, SVG Export Plug-In . SVG Version: 6.00 Build 0)  -->
<svg version="1.1" id="Layer_1" xmlns="http://www.w3.org/2000/svg" xmlns:xlink="http://www.w3.org/1999/xlink" x="0px" y="0px"
	 viewBox="0 0 32 32" style="enable-background:new 0 0 32 32;" xml:space="preserve">
<style type="text/css">
	.st0{fill:#010101;}
</style>
<g id="XMLID_14_">
	<path class="st0" d="M23.4,12.8l-4.5-4.5c-0.2-0.2-0.4-0.2-0.6,0L6.3,20.4c-0.2,0.2-0.2,0.4,0,0.6l4.5,4.5c0.1,0.1,0.2,0.1,0.3,0.1
		c0.1,0,0.2,0,0.3-0.1l12.1-12.1C23.6,13.2,23.6,13,23.4,12.8z M11,24.6l-3.9-3.9l2.6-2.6l1.7,1.7c0.1,0.1,0.2,0.1,0.3,0.1
		c0.1,0,0.2,0,0.3-0.1c0.2-0.2,0.2-0.4,0-0.6l-1.7-1.7l2.1-2.1l1.7,1.7c0.1,0.1,0.2,0.1,0.3,0.1s0.2,0,0.3-0.1
		c0.2-0.2,0.2-0.4,0-0.6L13,14.9l2.1-2.1l1.7,1.7c0.1,0.1,0.2,0.1,0.3,0.1s0.2,0,0.3-0.1c0.2-0.2,0.2-0.4,0-0.6l-1.7-1.7l3-3
		l3.9,3.9L11,24.6z"/>
	<path id="XMLID_11_" class="st0" d="M31.4,1l-6.9,6.9l1,1c0,0,0.1,0.1,0.1,0.2c0,0.1,0,0.1-0.1,0.2L23.6,11c0,0-0.1,0.1-0.2,0.1
		c-0.1,0-0.1,0-0.2-0.1l-2.5-2.5c0,0-0.1-0.1-0.1-0.2c0-0.1,0-0.1,0.1-0.2l1.8-1.8c0.1-0.1,0.3-0.1,0.4,0l1,1l6.9-6.9
		c0.2-0.2,0.4-0.2,0.6,0C31.5,0.5,31.5,0.8,31.4,1z"/>
	<path id="XMLID_10_" class="st0" d="M9,25.7l-1,1c0,0-0.1,0.1-0.2,0.1c-0.1,0-0.1,0-0.2-0.1l-0.5-0.5l-3.7,3.7L4.5,31
		c0.2,0.2,0.2,0.4,0,0.6c-0.1,0.1-0.2,0.1-0.3,0.1s-0.2,0-0.3-0.1l-3.8-3.8c-0.2-0.2-0.2-0.4,0-0.6c0.2-0.2,0.4-0.2,0.6,0l1.1,1.1
		l3.7-3.7L5,24.1c-0.1-0.1-0.1-0.3,0-0.4l1-1c0.1-0.1,0.3-0.1,0.4,0L9,25.4C9.1,25.5,9.1,25.6,9,25.7z"/>
	<path class="st0" d="M19.1,30.6c-1.3,0-2.4-1.1-2.4-2.4c0-1.3,1.1-2.4,2.4-2.4c1.3,0,2.4,1.1,2.4,2.4
		C21.5,29.5,20.4,30.6,19.1,30.6z M19.1,26.5c-0.9,0-1.7,0.8-1.7,1.7s0.8,1.7,1.7,1.7s1.7-0.8,1.7-1.7S20.1,26.5,19.1,26.5z"/>
	<path id="XMLID_7_" class="st0" d="M19.1,29.4c-0.2,0-0.4-0.2-0.4-0.4v-1.6c0-0.2,0.2-0.4,0.4-0.4s0.4,0.2,0.4,0.4V29
		C19.5,29.3,19.4,29.4,19.1,29.4z"/>
	<path class="st0" d="M29.6,27.4c0,0-0.1,0-0.1,0c-1.3-0.1-2.3-1.2-2.2-2.5c0.1-1.3,1.2-2.3,2.5-2.2c0.6,0,1.2,0.3,1.6,0.8
		c0.4,0.5,0.6,1.1,0.6,1.7C31.9,26.4,30.9,27.4,29.6,27.4z M29.6,23.4c-0.9,0-1.6,0.7-1.7,1.6c0,0.9,0.7,1.7,1.6,1.8
		c0.9,0,1.7-0.7,1.8-1.6c0-0.5-0.1-0.9-0.4-1.2C30.6,23.6,30.2,23.4,29.6,23.4C29.7,23.4,29.7,23.4,29.6,23.4z"/>
	<path id="XMLID_4_" class="st0" d="M30.4,25.5C30.4,25.5,30.4,25.5,30.4,25.5l-1.6-0.1c-0.2,0-0.4-0.2-0.4-0.4
		c0-0.2,0.2-0.4,0.4-0.4l1.6,0.1c0.2,0,0.4,0.2,0.4,0.4C30.8,25.3,30.7,25.5,30.4,25.5z"/>
	<path class="st0" d="M24.3,23c-0.6,0-1.1-0.2-1.6-0.6c-1-0.9-1-2.4-0.2-3.3c0.4-0.5,1.1-0.8,1.7-0.8c0.6,0,1.1,0.2,1.6,0.6
		c1,0.9,1,2.4,0.2,3.3C25.6,22.8,24.9,23,24.3,23z M24.3,19c-0.5,0-0.9,0.2-1.3,0.6c-0.6,0.7-0.6,1.8,0.1,2.4
		c0.3,0.3,0.7,0.4,1.1,0.4c0.5,0,0.9-0.2,1.3-0.6c0.6-0.7,0.6-1.8-0.1-2.4C25.1,19.1,24.7,19,24.3,19z"/>
	<path id="XMLID_1_" class="st0" d="M24.8,21.6c-0.1,0-0.2,0-0.3-0.1l-1.2-1.1c-0.2-0.2-0.2-0.4,0-0.6c0.2-0.2,0.4-0.2,0.6,0
		l1.2,1.1c0.2,0.2,0.2,0.4,0,0.6C25.1,21.6,25,21.6,24.8,21.6z"/>
</g>
</svg>
