<?xml version="1.0" encoding="utf-8"?>
<!-- Generator: Adobe Illustrator 19.0.0, SVG Export Plug-In . SVG Version: 6.00 Build 0)  -->
<svg version="1.1" id="Layer_1" xmlns="http://www.w3.org/2000/svg" xmlns:xlink="http://www.w3.org/1999/xlink" x="0px" y="0px"
	 viewBox="0 0 32 32" style="enable-background:new 0 0 32 32;" xml:space="preserve">
<style type="text/css">
	.st0{fill:#666766;}
</style>
<g id="XMLID_8_">
	<path class="st0" d="M28.4,20.5H13c-2,0-3.6,1.9-3.6,4.1c0,2.3,1.6,4.1,3.6,4.1h15.4c2,0,3.6-1.9,3.6-4.1
		C32,22.4,30.4,20.5,28.4,20.5z M10.6,24.6c0-1.6,1.1-2.9,2.4-2.9h7.7v5.7H13C11.7,27.5,10.6,26.2,10.6,24.6z"/>
	<path class="st0" d="M6.8,20.9L17.7,10c1.4-1.4,1.3-3.9-0.4-5.5c-1.6-1.6-4.1-1.8-5.5-0.4L1,15.1c-1.4,1.4-1.3,3.9,0.4,5.5
		C2.9,22.2,5.4,22.3,6.8,20.9z M16.4,5.4c1.1,1.1,1.3,2.8,0.4,3.7l-5.4,5.4l-4.1-4.1l5.4-5.4C13.7,4.2,15.3,4.3,16.4,5.4z"/>
	<path class="st0" d="M24.6,6.8c-3.2,0.8-5,4.1-4.2,7.2c0.8,3.2,4.1,5,7.2,4.2c3.2-0.8,5-4.1,4.2-7.2C31,7.9,27.7,6,24.6,6.8z
		 M24.8,7.8c2.5-0.7,5,0.7,5.9,3l-9.5,2.5C20.8,10.9,22.4,8.4,24.8,7.8z M27.3,17.3c-2.5,0.7-5-0.7-5.9-3l9.5-2.5
		C31.3,14.2,29.8,16.7,27.3,17.3z"/>
</g>
</svg>
