<?xml version="1.0" encoding="utf-8"?>
<!-- Generator: Adobe Illustrator 19.0.0, SVG Export Plug-In . SVG Version: 6.00 Build 0)  -->
<svg version="1.1" id="Layer_1" xmlns="http://www.w3.org/2000/svg" xmlns:xlink="http://www.w3.org/1999/xlink" x="0px" y="0px"
	 viewBox="2 85.4 471.9 191.6" style="enable-background:new 2 85.4 471.9 191.6;" xml:space="preserve">
<style type="text/css">
	.st0{fill:#1D4E8F;}
</style>
<path class="st0" d="M23.6,276.5H2V84.9h190c83.4,0,96.5,74.9,96.5,74.9l46.8-74.9h49l89.6,145.2l-28.1,46.3H327.7v-23.1h132.1
	l-100-168.4c0,0-66,114.8-80.1,137.1c-14.2,22.4-40.8,54.4-86.3,54.4h-70.6v-114h22.4v90.9h51.4c22.7,0,71.6-19.4,71.6-74.2
	s-52.2-71.9-69.3-71.9H23.6V276.5L23.6,276.5z M31.1,276.5v-81.2h83.5v22.4H53.4v58.9H31.1V276.5z M114.5,185.5v-23.1H53.4v-24.5
	H194c21.1,0,43.5,17.1,43.5,42S214.9,222,198.7,222h-21.9v-59.6h-23.1v82h45c28.5,0,61.5-24.8,61.5-63.7c0-38.6-30-65.2-65.8-65.2
	H31.1v70.1L114.5,185.5L114.5,185.5z M257.3,276.5l102.5-169.2L444,244.4H327.7V222H403l-43.2-70.4l-71.2,124.8L257.3,276.5
	L257.3,276.5z"/>
</svg>
