<?xml version="1.0" encoding="utf-8"?>
<!-- Generator: Adobe Illustrator 19.0.0, SVG Export Plug-In . SVG Version: 6.00 Build 0)  -->
<svg version="1.1" id="Layer_1" xmlns="http://www.w3.org/2000/svg" xmlns:xlink="http://www.w3.org/1999/xlink" x="0px" y="0px"
	 viewBox="0 0 471.9 191.6" style="enable-background:new 0 0 471.9 191.6;" xml:space="preserve">
<style type="text/css">
	.st0{fill:#FFFFFF;}
</style>
<path class="st0" d="M21.6,191.1H0V-0.5h190c83.4,0,96.5,74.9,96.5,74.9l46.8-74.9h49l89.6,145.2l-28.1,46.3H325.7v-23.1h132.1
	L357.8-0.5c0,0-66,114.8-80.1,137.1c-14.2,22.4-40.8,54.4-86.3,54.4h-70.6V77h22.4v90.9h51.4c22.7,0,71.6-19.4,71.6-74.2
	c0-54.8-52.2-71.9-69.3-71.9H21.6L21.6,191.1L21.6,191.1z M29.1,191.1v-81.2h83.5v22.4H51.4v58.9H29.1L29.1,191.1z M112.5,100.1V77
	H51.4V52.5h140.6c21.1,0,43.5,17.1,43.5,42s-22.6,42.1-38.8,42.1h-21.9V77h-23.1v82h45c28.5,0,61.5-24.8,61.5-63.7
	c0-38.6-30-65.2-65.8-65.2H29.1v70.1L112.5,100.1L112.5,100.1z M255.3,191.1L357.8,21.9L442,159H325.7v-22.4H401l-43.2-70.4
	l-71.2,124.8L255.3,191.1L255.3,191.1z"/>
</svg>
