<?xml version="1.0" encoding="utf-8"?>
<!-- Generator: Adobe Illustrator 19.0.0, SVG Export Plug-In . SVG Version: 6.00 Build 0)  -->
<svg version="1.1" id="Layer_1" xmlns="http://www.w3.org/2000/svg" xmlns:xlink="http://www.w3.org/1999/xlink" x="0px" y="0px"
	 viewBox="0 0 32 32" style="enable-background:new 0 0 32 32;" xml:space="preserve">
<style type="text/css">
	.st0{fill:#666766;}
</style>
<path class="st0" d="M31.5,22.2c0.9-2,0.5-4.2,0-5.5c-0.1-0.3-0.4-0.5-0.8-0.6c-1.3-0.1-3.5,0.4-5.1,1.8c-0.6-0.3-1.2-0.5-1.9-0.5
	c-0.1,0-0.2,0-0.3,0c-0.1-0.6-0.2-1.1-0.4-1.5c-0.1-0.3-0.4-0.5-0.8-0.6c-1.6-0.1-4.4,0.5-6.1,2.9c-0.8-1.7-2.1-2.8-3.2-3.4v-3.3
	c0-2.5-1.4-4.7-3.6-5.8V4l0,0c0.2,0,0.4-0.2,0.4-0.4V1.4C9.7,1.2,9.5,1,9.3,1H3.5C3.3,1,3.1,1.2,3.1,1.4v2.2C3.1,3.8,3.3,4,3.5,4
	h0.1v2.1C1.4,7.2,0,9.4,0,11.9v18.3C0,30.6,0.4,31,0.9,31h5.5H12h17.4c0.4,0,0.8-0.3,0.9-0.7l1.5-7.1c0.1-0.3,0-0.5-0.2-0.7
	C31.6,22.5,31.5,22.4,31.5,22.2z M22.5,19.8c0.3-0.2,0.6-0.3,0.9-0.4c0.1,0,0.2,0,0.2,0c0.3,0,0.5,0.1,0.7,0.1
	c0.3,0.1,0.5,0.3,0.7,0.5c0.2,0.3,0.4,0.6,0.5,1c0,0.1,0,0.2,0,0.4c0,0.3-0.1,0.5-0.2,0.8h-0.2h-0.9h-0.9h-0.8h-0.8
	c0-0.1-0.1-0.1-0.1-0.2c-0.1-0.2-0.1-0.4-0.1-0.6C21.7,20.8,22,20.2,22.5,19.8z M16.7,21.7c0.7-3.5,3.5-4.1,4.8-4.3
	c0.1,0.2,0.1,0.5,0.1,0.8c-1,0.7-1.7,1.8-1.7,3.2c0,0.3,0,0.5,0.1,0.8h-1.4l1.8-3c0.1-0.2,0.1-0.5-0.1-0.6s-0.5-0.1-0.6,0.1
	l-2.1,3.5h-0.9l-0.1-0.1C16.7,22,16.7,21.8,16.7,21.7z M12,17.5c0.2-0.2,0.3-0.4,0.4-0.5c0.1,0.1,0.3,0.2,0.5,0.3
	c1,0.8,2.4,2.4,2,4.9h-1.4L12.9,19v-0.1c0-0.2-0.3-0.4-0.5-0.3c-0.2,0-0.3,0.2-0.3,0.3c0,0.1,0,0.1,0,0.2l0,0l0.6,3H12h-0.3h-0.5
	c0-0.1-0.1-0.2-0.1-0.2c0-0.1-0.1-0.3-0.1-0.4c-0.1-0.5-0.1-0.9-0.1-1.3c0-0.3,0.1-0.6,0.2-0.9c0-0.2,0.1-0.3,0.2-0.5
	C11.5,18.2,11.8,17.9,12,17.5z M4.6,22.2c-0.2,0-0.3,0.1-0.5,0.3C4,22.7,3.9,23,4,23.2l1.3,6H1.8V11.9c0-1.9,1.2-3.7,3-4.4
	C5.1,7.4,5.4,7,5.4,6.7V4h2.1v2.7c0,0.4,0.2,0.7,0.6,0.8c1.8,0.7,3.1,2.4,3.1,4.4v3.9c-0.4,0.5-0.9,1.1-1.2,1.8
	c-0.5-0.3-1.1-0.4-1.7-0.4c-2.1,0-3.8,1.7-3.8,3.8C4.4,21.4,4.5,21.8,4.6,22.2z M9.4,22.2H6.6c-0.3-0.3-0.4-0.8-0.4-1.2
	c0-1.1,0.9-2,2-2c0.4,0,0.8,0.1,1.1,0.3C9.1,20.2,9.1,21.2,9.4,22.2z M29.7,24.7l-1,4.6H12.9H12h-0.9h-4L6,24l0,0h4.1h0.4h0.7H12
	l0,0h0.9H13h0.8H15h1.2h2.5h0.6h0.6H21h0.3h1.1H25h1.4h0.3h1h1.5h0.6L29.7,24.7z M29.6,22.2h-2.2c0.1-0.3,0.1-0.5,0.1-0.8
	c0-0.7-0.2-1.4-0.6-2c1.1-0.9,2.4-1.2,3.2-1.3C30.2,19,30.5,20.7,29.6,22.2z"/>
</svg>
