<?xml version="1.0" encoding="utf-8"?>
<!-- Generator: Adobe Illustrator 19.0.0, SVG Export Plug-In . SVG Version: 6.00 Build 0)  -->
<svg version="1.1" id="Layer_1" xmlns="http://www.w3.org/2000/svg" xmlns:xlink="http://www.w3.org/1999/xlink" x="0px" y="0px"
	 viewBox="0 0 32 32" style="enable-background:new 0 0 32 32;" xml:space="preserve">
<style type="text/css">
	.st0{fill:#2A81BA;}
	.st1{fill:#3C97D3;}
	.st2{fill:#EDF0F1;}
	.st3{fill:#BDC3C7;}
	.st4{fill:#95A5A6;}
</style>
<g transform="translate(0 -1028.4)">
	<path id="XMLID_10_" class="st0" d="M0,1039.1v3.6v3.6v10.7c0,2,1.6,3.6,3.6,3.6h24.9c2,0,3.6-1.6,3.6-3.6v-10.7v-3.6v-3.6H0z"/>
	<path id="XMLID_9_" class="st1" d="M3.6,1028.4c-2,0-3.6,1.6-3.6,3.6v3.6v3.6v1.8v3.6v10.7c0,2,1.6,3.6,3.6,3.6h24.9
		c2,0,3.6-1.6,3.6-3.6v-10.7v-3.6v-1.8v-3.6v-1.8l-5.3-5.3h-1.8h-3.6H3.6z"/>
	<path id="XMLID_8_" class="st0" d="M5.3,1028.4v1.8v1.8v3.6c0,2,1.6,3.6,3.6,3.6h1.8h7.1h3.6h1.8c2,0,3.6-1.6,3.6-3.6v-3.3v-0.3
		v-1.8v-1.8H5.3z"/>
	<path id="XMLID_7_" class="st2" d="M8.9,1046.2c-2,0-3.6,1.6-3.6,3.6v3.2v5.7h21.3v-5.7v-3.2c0-2-1.6-3.6-3.6-3.6h-5.3H8.9z"/>
	<rect id="XMLID_6_" x="5.3" y="1058.6" class="st3" width="21.3" height="1.8"/>
	<path id="XMLID_5_" class="st2" d="M7.1,1028.4v1.8v3.6c0,2,1.6,3.6,3.6,3.6h1.8h7.1h1.8c2,0,3.6-1.6,3.6-3.6v-3.4v-0.2v-1.8H7.1z"
		/>
	<path id="XMLID_4_" class="st4" d="M8.9,1030.2v3.6c0,1,0.8,1.8,1.8,1.8h1.8h1.8c1,0,1.8-0.8,1.8-1.8v-3.6h-3.6H8.9z"/>
	<g>
		<rect id="XMLID_3_" x="8.9" y="1049.7" class="st3" width="14.2" height="1.8"/>
		<rect id="XMLID_2_" x="8.9" y="1053.3" class="st3" width="14.2" height="1.8"/>
		<rect id="XMLID_1_" x="8.9" y="1028.4" class="st3" width="7.1" height="1.8"/>
	</g>
</g>
</svg>
