<svg id="Layer_1" xmlns="http://www.w3.org/2000/svg" viewBox="0 0 32 32"><style>.st0{fill:#666766;}</style><path class="st0" d="M31.9 19.4c0-2.7-2.2-4.8-4.8-4.8s-4.8 2.2-4.8 4.8c0 2.2 1.5 4.1 3.6 4.7-.5 2.7-2.2 5.5-7.1 5.5-2.2 0-4-.7-5.3-2-1.4-1.5-2-3.6-2.2-5.2.4-.7.8-1.7.9-2.5C18 17 19.7 4.4 19.7 4.3c0-.4.1-1.3-2.6-2.8C16.8.6 15.9 0 15 0c-1.3 0-2.3 1-2.3 2.3s1 2.3 2.3 2.3c.6 0 1.2-.2 1.6-.7.3.2.6.4.7.5-.4 2.9-2.9 13.4-7.4 13.8C5.4 17.9 3 7.4 2.5 4.4c.2-.1.4-.3.7-.5.4.4 1 .7 1.6.7 1.3 0 2.3-1 2.3-2.3S6.1 0 4.8 0C3.9 0 3 .6 2.7 1.5 0 2.9 0 3.9.1 4.3.1 4.4 1.8 17 7.6 20c.1.9.6 2.2 1.3 2.9.3 1.8 1 4.4 2.8 6.3 1.7 1.9 4.1 2.8 7 2.8 7.3 0 9.1-5 9.5-7.9 2.2-.5 3.7-2.4 3.7-4.7zm-4.8 2.5c-1.4 0-2.5-1.1-2.5-2.5s1.1-2.5 2.5-2.5 2.5 1.1 2.5 2.5-1.1 2.5-2.5 2.5z"/><circle id="XMLID_9_" class="st0" cx="27.1" cy="19.4" r="1.2"/></svg>