<svg id="Layer_1" xmlns="http://www.w3.org/2000/svg" viewBox="0 0 32 32"><style>.st0{fill:#010101;}</style><path id="XMLID_5_" class="st0" d="M15.8 13.9c-1 0-1.7.8-1.7 1.7 0 1 .8 1.7 1.7 1.7 1 0 1.7-.8 1.7-1.7.1-1-.7-1.7-1.7-1.7z"/><path class="st0" d="M30.4 2C28.2-.5 25.5.4 25.5.4L8.2 17.3C7 24.9 0 31.1 0 31.1l.7.6c8.9-8.2 13.4-8 13.4-8L31.2 7.1c2.2-2.2-.8-5.1-.8-5.1zM15.8 18.3c-1.5 0-2.7-1.2-2.7-2.7s1.2-2.7 2.7-2.7 2.7 1.2 2.7 2.7c.1 1.5-1.2 2.7-2.7 2.7zm7.4-5.7l-3.5-3.9L25 3.8l3.8 3.6-5.6 5.2z"/><path id="XMLID_1_" class="st0" d="M21 8.8l2.2 2.4 4-3.7-2.3-2.3z"/></svg>