<svg id="Layer_1" xmlns="http://www.w3.org/2000/svg" viewBox="0 0 32 32"><style>.st0{fill:#666766;}</style><g id="XMLID_8_"><path class="st0" d="M28.4 20.5H13c-2 0-3.6 1.9-3.6 4.1 0 2.3 1.6 4.1 3.6 4.1h15.4c2 0 3.6-1.9 3.6-4.1 0-2.2-1.6-4.1-3.6-4.1zm-17.8 4.1c0-1.6 1.1-2.9 2.4-2.9h7.7v5.7H13c-1.3.1-2.4-1.2-2.4-2.8zM6.8 20.9L17.7 10c1.4-1.4 1.3-3.9-.4-5.5-1.6-1.6-4.1-1.8-5.5-.4L1 15.1c-1.4 1.4-1.3 3.9.4 5.5 1.5 1.6 4 1.7 5.4.3zm9.6-15.5c1.1 1.1 1.3 2.8.4 3.7l-5.4 5.4-4.1-4.1L12.7 5c1-.8 2.6-.7 3.7.4zM24.6 6.8c-3.2.8-5 4.1-4.2 7.2.8 3.2 4.1 5 7.2 4.2 3.2-.8 5-4.1 4.2-7.2-.8-3.1-4.1-5-7.2-4.2zm.2 1c2.5-.7 5 .7 5.9 3l-9.5 2.5c-.4-2.4 1.2-4.9 3.6-5.5zm2.5 9.5c-2.5.7-5-.7-5.9-3l9.5-2.5c.4 2.4-1.1 4.9-3.6 5.5z"/></g></svg>