<svg id="Layer_1" xmlns="http://www.w3.org/2000/svg" viewBox="0 0 32 32"><style>.st0{fill:#010101;}</style><g id="XMLID_14_"><path class="st0" d="M23.4 12.8l-4.5-4.5c-.2-.2-.4-.2-.6 0l-12 12.1c-.2.2-.2.4 0 .6l4.5 4.5c.1.1.2.1.3.1.1 0 .2 0 .3-.1l12.1-12.1c.1-.2.1-.4-.1-.6zM11 24.6l-3.9-3.9 2.6-2.6 1.7 1.7c.1.1.2.1.3.1.1 0 .2 0 .3-.1.2-.2.2-.4 0-.6l-1.7-1.7 2.1-2.1 1.7 1.7c.1.1.2.1.3.1s.2 0 .3-.1c.2-.2.2-.4 0-.6L13 14.9l2.1-2.1 1.7 1.7c.1.1.2.1.3.1s.2 0 .3-.1c.2-.2.2-.4 0-.6l-1.7-1.7 3-3 3.9 3.9L11 24.6z"/><path id="XMLID_11_" class="st0" d="M31.4 1l-6.9 6.9 1 1s.1.1.1.2 0 .1-.1.2L23.6 11s-.1.1-.2.1-.1 0-.2-.1l-2.5-2.5s-.1-.1-.1-.2 0-.1.1-.2l1.8-1.8c.1-.1.3-.1.4 0l1 1L30.8.4c.2-.2.4-.2.6 0 .1.1.1.4 0 .6z"/><path id="XMLID_10_" class="st0" d="M9 25.7l-1 1s-.1.1-.2.1-.1 0-.2-.1l-.5-.5-3.7 3.7L4.5 31c.2.2.2.4 0 .6-.1.1-.2.1-.3.1s-.2 0-.3-.1L.1 27.8c-.2-.2-.2-.4 0-.6.2-.2.4-.2.6 0l1.1 1.1 3.7-3.7-.5-.5c-.1-.1-.1-.3 0-.4l1-1c.1-.1.3-.1.4 0L9 25.4c.1.1.1.2 0 .3z"/><path class="st0" d="M19.1 30.6c-1.3 0-2.4-1.1-2.4-2.4 0-1.3 1.1-2.4 2.4-2.4 1.3 0 2.4 1.1 2.4 2.4 0 1.3-1.1 2.4-2.4 2.4zm0-4.1c-.9 0-1.7.8-1.7 1.7s.8 1.7 1.7 1.7 1.7-.8 1.7-1.7-.7-1.7-1.7-1.7z"/><path id="XMLID_7_" class="st0" d="M19.1 29.4c-.2 0-.4-.2-.4-.4v-1.6c0-.2.2-.4.4-.4s.4.2.4.4V29c0 .3-.1.4-.4.4z"/><path class="st0" d="M29.6 27.4h-.1c-1.3-.1-2.3-1.2-2.2-2.5.1-1.3 1.2-2.3 2.5-2.2.6 0 1.2.3 1.6.8.4.5.6 1.1.6 1.7-.1 1.2-1.1 2.2-2.4 2.2zm0-4c-.9 0-1.6.7-1.7 1.6 0 .9.7 1.7 1.6 1.8.9 0 1.7-.7 1.8-1.6 0-.5-.1-.9-.4-1.2-.3-.4-.7-.6-1.3-.6.1 0 .1 0 0 0z"/><path id="XMLID_4_" class="st0" d="M30.4 25.5l-1.6-.1c-.2 0-.4-.2-.4-.4s.2-.4.4-.4l1.6.1c.2 0 .4.2.4.4s-.1.4-.4.4z"/><path class="st0" d="M24.3 23c-.6 0-1.1-.2-1.6-.6-1-.9-1-2.4-.2-3.3.4-.5 1.1-.8 1.7-.8.6 0 1.1.2 1.6.6 1 .9 1 2.4.2 3.3-.4.6-1.1.8-1.7.8zm0-4c-.5 0-.9.2-1.3.6-.6.7-.6 1.8.1 2.4.3.3.7.4 1.1.4.5 0 .9-.2 1.3-.6.6-.7.6-1.8-.1-2.4-.3-.3-.7-.4-1.1-.4z"/><path id="XMLID_1_" class="st0" d="M24.8 21.6c-.1 0-.2 0-.3-.1l-1.2-1.1c-.2-.2-.2-.4 0-.6.2-.2.4-.2.6 0l1.2 1.1c.2.2.2.4 0 .6 0 .1-.1.1-.3.1z"/></g></svg>