<svg id="Layer_1" xmlns="http://www.w3.org/2000/svg" viewBox="2 85.4 471.9 191.6"><style>.st0{fill:#1D4E8F;}</style><path class="st0" d="M23.6 276.5H2V84.9h190c83.4 0 96.5 74.9 96.5 74.9l46.8-74.9h49l89.6 145.2-28.1 46.3H327.7v-23.1h132.1l-100-168.4s-66 114.8-80.1 137.1c-14.2 22.4-40.8 54.4-86.3 54.4h-70.6v-114h22.4v90.9h51.4c22.7 0 71.6-19.4 71.6-74.2s-52.2-71.9-69.3-71.9H23.6v169.3zm7.5 0v-81.2h83.5v22.4H53.4v58.9H31.1v-.1zm83.4-91v-23.1H53.4v-24.5H194c21.1 0 43.5 17.1 43.5 42S214.9 222 198.7 222h-21.9v-59.6h-23.1v82h45c28.5 0 61.5-24.8 61.5-63.7 0-38.6-30-65.2-65.8-65.2H31.1v70.1l83.4-.1zm142.8 91l102.5-169.2L444 244.4H327.7V222H403l-43.2-70.4-71.2 124.8-31.3.1z"/></svg>