<svg id="Layer_1" xmlns="http://www.w3.org/2000/svg" viewBox="0 0 471.9 191.6"><style>.st0{fill:#FFFFFF;}</style><path class="st0" d="M21.6 191.1H0V-.5h190c83.4 0 96.5 74.9 96.5 74.9L333.3-.5h49l89.6 145.2-28.1 46.3H325.7v-23.1h132.1L357.8-.5s-66 114.8-80.1 137.1C263.5 159 236.9 191 191.4 191h-70.6V77h22.4v90.9h51.4c22.7 0 71.6-19.4 71.6-74.2 0-54.8-52.2-71.9-69.3-71.9H21.6v169.3zm7.5 0v-81.2h83.5v22.4H51.4v58.9H29.1v-.1zm83.4-91V77H51.4V52.5H192c21.1 0 43.5 17.1 43.5 42s-22.6 42.1-38.8 42.1h-21.9V77h-23.1v82h45c28.5 0 61.5-24.8 61.5-63.7 0-38.6-30-65.2-65.8-65.2H29.1v70.1l83.4-.1zm142.8 91L357.8 21.9 442 159H325.7v-22.4H401l-43.2-70.4L286.6 191l-31.3.1z"/></svg>