<svg id="Layer_1" xmlns="http://www.w3.org/2000/svg" viewBox="0 0 32 32"><style>.st0{fill:#010101;}</style><path class="st0" d="M31.5 22.3c.9-2 .5-4.2 0-5.5-.1-.3-.4-.5-.8-.6-1.3-.1-3.5.4-5.1 1.8-.6-.3-1.2-.5-1.9-.5h-.3c-.1-.6-.2-1.1-.4-1.5-.1-.3-.4-.5-.8-.6-1.6-.1-4.4.5-6.1 2.9-.8-1.7-2.1-2.8-3.2-3.4v-3.3c0-2.5-1.4-4.7-3.6-5.8V4c.2 0 .4-.2.4-.4V1.4c0-.2-.2-.4-.4-.4H3.5c-.2 0-.4.2-.4.4v2.2c0 .2.2.4.4.4h.1v2.1C1.4 7.2 0 9.4 0 11.9v18.3c0 .5.4.9.9.9h28.5c.4 0 .8-.3.9-.7l1.5-7.1c.1-.3 0-.5-.2-.7 0-.1-.1-.2-.1-.3zm-9-2.5c.3-.2.6-.3.9-.4h.2c.3 0 .5.1.7.1.3.1.5.3.7.5.2.3.4.6.5 1v.4c0 .3-.1.5-.2.8H21.7c0-.1-.1-.1-.1-.2-.1-.2-.1-.4-.1-.6.2-.6.5-1.2 1-1.6zm-5.8 1.9c.7-3.5 3.5-4.1 4.8-4.3.1.2.1.5.1.8-1 .7-1.7 1.8-1.7 3.2 0 .3 0 .5.1.8h-1.4l1.8-3c.1-.2.1-.5-.1-.6-.2-.1-.5-.1-.6.1l-2.1 3.5h-.9l-.1-.1c.1-.1.1-.3.1-.4zM12 17.5c.2-.2.3-.4.4-.5.1.1.3.2.5.3 1 .8 2.4 2.4 2 4.9h-1.4l-.6-3.1V19c0-.2-.3-.4-.5-.3-.2 0-.3.2-.3.3v.2l.6 3h-1.5c0-.1-.1-.2-.1-.2 0-.1-.1-.3-.1-.4-.1-.5-.1-.9-.1-1.3 0-.3.1-.6.2-.9 0-.2.1-.3.2-.5.2-.6.5-1 .7-1.4zm-7.4 4.7c-.2 0-.3.1-.5.3-.1.2-.2.5-.1.8l1.3 6H1.8V11.9c0-1.9 1.2-3.7 3-4.4.3-.1.6-.5.6-.8V4h2.1v2.7c0 .4.2.7.6.8 1.8.7 3.1 2.4 3.1 4.4v3.9c-.4.5-.9 1.1-1.2 1.8-.5-.3-1.1-.4-1.7-.4-2.1 0-3.8 1.7-3.8 3.8-.1.4 0 .8.1 1.2zm4.8 0H6.6c-.3-.3-.4-.8-.4-1.2 0-1.1.9-2 2-2 .4 0 .8.1 1.1.3-.2.9-.2 1.9.1 2.9zm20.3 2.5l-1 4.6H7.1L6 24h23.8l-.1.7zm-.1-2.5h-2.2c.1-.3.1-.5.1-.8 0-.7-.2-1.4-.6-2 1.1-.9 2.4-1.2 3.2-1.3.1.9.4 2.6-.5 4.1z"/></svg>