<svg id="Layer_1" xmlns="http://www.w3.org/2000/svg" viewBox="0 0 32 32"><style>.st0{fill:#2A81BA;} .st1{fill:#3C97D3;} .st2{fill:#EDF0F1;} .st3{fill:#BDC3C7;} .st4{fill:#95A5A6;}</style><path id="XMLID_10_" class="st0" d="M0 10.7v17.9c0 2 1.6 3.6 3.6 3.6h24.9c2 0 3.6-1.6 3.6-3.6V10.7H0z"/><path id="XMLID_9_" class="st1" d="M3.6 0C1.6 0 0 1.6 0 3.6V26.9c0 2 1.6 3.6 3.6 3.6h24.9c2 0 3.6-1.6 3.6-3.6V5.4L26.8.1H3.6z"/><path id="XMLID_8_" class="st0" d="M5.3 0v7.2c0 2 1.6 3.6 3.6 3.6h14.3c2 0 3.6-1.6 3.6-3.6V0H5.3z"/><path id="XMLID_7_" class="st2" d="M8.9 17.8c-2 0-3.6 1.6-3.6 3.6v8.9h21.3v-8.9c0-2-1.6-3.6-3.6-3.6H8.9z"/><path id="XMLID_6_" class="st3" d="M5.3 30.2h21.3V32H5.3z"/><path id="XMLID_5_" class="st2" d="M7.1 0v5.4c0 2 1.6 3.6 3.6 3.6H21.4c2 0 3.6-1.6 3.6-3.6V0H7.1z"/><path id="XMLID_4_" class="st4" d="M8.9 1.8v3.6c0 1 .8 1.8 1.8 1.8h3.6c1 0 1.8-.8 1.8-1.8V1.8H8.9z"/><path id="XMLID_3_" class="st3" d="M8.9 21.3h14.2v1.8H8.9z"/><path id="XMLID_2_" class="st3" d="M8.9 24.9h14.2v1.8H8.9z"/><path id="XMLID_1_" class="st3" d="M8.9 0H16v1.8H8.9z"/></svg>